<?xml version="1.0" encoding="UTF-8" standalone="no"?>
<!DOCTYPE svg PUBLIC "-//W3C//DTD SVG 1.1//EN"
 "http://www.w3.org/Graphics/SVG/1.1/DTD/svg11.dtd">
<!-- Generated by graphviz version 2.40.1 (20161225.0304)
 -->
<!-- Title: FamilyGraph Pages: 1 -->
<svg width="505pt" height="173pt"
 viewBox="0.00 0.00 505.00 173.00" xmlns="http://www.w3.org/2000/svg" xmlns:xlink="http://www.w3.org/1999/xlink">
<g id="graph0" class="graph" transform="scale(1 1) rotate(0) translate(4 169)">
<title>FamilyGraph</title>
<polygon fill="#23272a" stroke="transparent" points="-4,4 -4,-169 501,-169 501,4 -4,4"/>
<g id="clust1" class="cluster">
<title>cluster_family_0</title>
<polygon fill="#2c2f33" stroke="#2c2f33" points="8,-8 8,-157 489,-157 489,-8 8,-8"/>
<text text-anchor="start" x="16" y="-139.6" font-family="Helvetica, Arial, sans-serif" font-weight="bold" font-size="16.00" fill="#ffffff">Travertine</text>
</g>
<g id="clust2" class="cluster">
<title>cluster_family_0_0</title>
</g>
<!-- union_0_0 -->
<g id="node1" class="node">
<title>union_0_0</title>
<ellipse fill="#ccdf32" stroke="#ffffff" cx="230.5" cy="-69" rx="3.5" ry="3.5"/>
</g>
<!-- siblings_0_0 -->
<g id="node4" class="node">
<title>siblings_0_0</title>
<polygon fill="#ccdf32" stroke="#cccccc" stroke-width="0" points="270,-69.5 263,-69.5 263,-68.5 270,-68.5 270,-69.5"/>
</g>
<!-- union_0_0&#45;&gt;siblings_0_0 -->
<g id="edge3" class="edge">
<title>union_0_0&#45;&gt;siblings_0_0</title>
<path fill="none" stroke="#ccdf32" d="M234.0834,-69C240.9128,-69 255.7324,-69 262.7154,-69"/>
</g>
<!-- Elisolde -->
<g id="node2" class="node">
<title>Elisolde</title>
<g id="a_node2"><a xlink:title="undefined &#10;Added Invalid Date&#10;&#10;&#10;">
<polygon fill="#36393f" stroke="#cccccc" points="198,-120 18,-120 18,-78 198,-78 198,-120"/>
<text text-anchor="start" x="83.4979" y="-101.4" font-family="Helvetica, Arial, sans-serif" font-size="14.00" fill="#ffffff">Elisolde</text>
<text text-anchor="start" x="66.6085" y="-87" font-family="Helvetica, Arial, sans-serif" font-size="10.00" fill="#aaaaaa">Elisolde Travertine</text>
</a>
</g>
</g>
<!-- Elisolde&#45;&gt;union_0_0 -->
<g id="edge1" class="edge">
<title>Elisolde&#45;&gt;union_0_0</title>
<path fill="none" stroke="#ccdf32" d="M198.0383,-84C216.7943,-84 231,-84 231,-84 231,-84 231,-76.9102 231,-72.479"/>
</g>
<!-- Odgen -->
<g id="node3" class="node">
<title>Odgen</title>
<g id="a_node3"><a xlink:title="undefined &#10;Added Invalid Date&#10;&#10;&#10;">
<polygon fill="#36393f" stroke="#cccccc" points="198,-60 18,-60 18,-18 198,-18 198,-60"/>
<text text-anchor="start" x="87.4895" y="-41.4" font-family="Helvetica, Arial, sans-serif" font-size="14.00" fill="#ffffff">Odgen</text>
<text text-anchor="start" x="69.6025" y="-27" font-family="Helvetica, Arial, sans-serif" font-size="10.00" fill="#aaaaaa">Odgen Travertine</text>
</a>
</g>
</g>
<!-- Odgen&#45;&gt;union_0_0 -->
<g id="edge2" class="edge">
<title>Odgen&#45;&gt;union_0_0</title>
<path fill="none" stroke="#ccdf32" d="M198.0383,-54C216.7943,-54 231,-54 231,-54 231,-54 231,-61.0898 231,-65.521"/>
</g>
<!-- Pallia -->
<g id="node5" class="node">
<title>Pallia</title>
<g id="a_node5"><a xlink:title="undefined &#10;Added Invalid Date&#10;&#10;&#10;">
<polygon fill="#36393f" stroke="#cccccc" points="479,-90 299,-90 299,-48 479,-48 479,-90"/>
<text text-anchor="start" x="371.8892" y="-71.4" font-family="Helvetica, Arial, sans-serif" font-size="14.00" fill="#ffffff">Pallia</text>
<text text-anchor="start" x="352.888" y="-57" font-family="Helvetica, Arial, sans-serif" font-size="10.00" fill="#aaaaaa">Pallia Travertine</text>
</a>
</g>
</g>
<!-- siblings_0_0&#45;&gt;Pallia -->
<g id="edge4" class="edge">
<title>siblings_0_0&#45;&gt;Pallia</title>
<path fill="none" stroke="#ccdf32" d="M270.0341,-69C270.0341,-69 288.8106,-69 288.8106,-69"/>
<polygon fill="#ccdf32" stroke="#ccdf32" points="296.8105,-59 296.8107,-79 292.8107,-79.0001 292.8105,-59.0001 296.8105,-59"/>
<polyline fill="none" stroke="#ccdf32" points="298.8106,-69 288.8106,-69.0001 "/>
</g>
</g>
</svg>
